<?xml version="1.0" encoding="utf-8"?>
<!-- Generator: Adobe Illustrator 23.0.6, SVG Export Plug-In . SVG Version: 6.00 Build 0)  -->
<svg version="1.1" id="Ebene_1" xmlns="http://www.w3.org/2000/svg" x="0px" y="0px"
     viewBox="0 0 307.4 115.5" style="enable-background:new 0 0 307.4 115.5;" xml:space="preserve">
<style type="text/css">
	.st0{fill:#34393A;}
	.st1{fill:#94A743;}
</style>
    <g>
	<path class="st0" d="M78.7,102.5V30.4c0-15.4,9.2-26.1,23.7-26.1c14.7,0,24.2,10.7,24.2,26.1v14.4c0,14.4-9.4,24.2-24.1,24.2H91.3
		v33.5c0,1.3-0.7,2-1.8,2h-9C79.4,104.5,78.7,103.8,78.7,102.5z M102,57.2c7.3,0,11.7-4.5,11.7-12.1V29.8c0-8.2-4.4-13.5-11.3-13.5
		s-11.1,5.4-11.1,13.5v27.3H102z"/>
        <path class="st0" d="M137.8,102.5V30.4c0-15.5,9.6-25.9,24.1-25.9c14.5,0,24.2,10.4,24.2,25.9v72.1c0,1.3-0.7,2-2,2h-8.9
		c-1.1,0-2-0.7-2-2V71.2h-22.8v31.3c0,1.3-0.7,2-1.8,2h-9C138.5,104.5,137.8,103.8,137.8,102.5z M173.3,59.6V29.8
		c0-8.5-4.1-13.4-11.4-13.4c-7.2,0-11.4,4.9-11.4,13.4v29.7H173.3z"/>
        <path class="st0" d="M197,78.1c0-1.3,0.7-2,2-2h8.9c1.1,0,1.8,0.7,2,1.8c0.3,10.7,4.4,16.1,12,16.1c7.5,0,11.4-4.1,11.4-11.7
		c0-21.8-35.4-28.5-35.4-55.5c0-13.8,9.3-22.5,23.2-22.5c13.8,0,23,10.6,23.5,27c0,1.1-0.6,1.8-1.8,1.8h-8.9c-1.1,0-1.8-0.7-1.8-1.8
		c-0.4-10.4-4.2-15.2-10.8-15.2c-6.9,0-10.7,3.7-10.7,10.7c0,20.1,35.5,26.8,35.5,55.5c0,14.5-9.7,23.7-24.4,23.7
		C207,106,197.5,95.2,197,78.1z"/>
        <path class="st0" d="M256.3,79.4V31c0-15.8,10.3-26.5,24.9-26.5C295.9,4.5,306,15.2,306,30v50.4c0,14.8-10.1,25.5-24.8,25.5
		C266.6,105.9,256.3,95.2,256.3,79.4z M293.2,81V29.4c0-7.7-4.8-13.1-12-13.1c-7.2,0-12.1,5.4-12.1,14.1V80
		c0,8.7,4.9,14.1,12.1,14.1C288.4,94.1,293.2,88.7,293.2,81z"/>
        <path class="st1" d="M67.2,48.1c-27.9-1.1-36.5-2.2-38.5-3c-0.1,0-4.1-1.6-4.1-1.6l11.5-27.3c11.6,0,23.2-0.1,34.8-0.1
		c0.3-1.2,0.8-3.1,2.1-5.1c0.9-1.4,2-2.4,2.8-3.1c-3.4-0.1-6.1-0.2-8-0.3c-1,0-3.6-0.2-8.8-0.2c0,0-12.5-0.2-12.5-0.2
		c0,0,3.9,0.1,2.7,0.1c-3.9,0.1-7.7,0.2-11.4,0.4C37,7.8,35.9,8,34.7,8.5c-0.5,0.2-1.4,0.6-2.4,1.3c-1.4,1.1-2.1,2.4-2.4,3
		c-1.1,2.1-4.9,9.4-10.1,19.4h-3.5c0,0,0.5-5.8-5.5-5.5c-6,0.3-10,0-10.5,3.5c-0.5,3.5,7.5,6.3,13.5,5.8c1.6-0.1,3.1-0.3,4.3-0.5
		c-0.4,0.8-0.8,1.6-1.2,2.4C16.9,37.8,1,40.1,1,81c0.1,6.4,0.4,11.8,0.7,15.9c0.9,11,2,14.7,4.6,15.8c0.7,0.3,2.2,0.4,5,0.5
		c3.1,0.1,4.6,0.2,5.7-0.3c3.1-1.6,3.3-6.9,3.3-8c15.6-0.1,31.2-0.1,46.8-0.2C67.1,85.8,67.1,66.9,67.2,48.1z M30.7,64.2
		c0,0-17.3,0.5-19.5-4c-0.4-1.4-1.9-6.6,0.3-8.3c1.3-1.1,3.4-0.3,8.8,1.5c4.7,1.6,8.6,2.8,11,3.5L30.7,64.2z"/>
</g>
</svg>
