<?xml version="1.0" encoding="UTF-8" standalone="no"?>
<svg
        height="1000"
        width="1000"
        fill="#cc3333"
        version="1.1"
        id="svg137"
        sodipodi:docname="delete.svg"
        inkscape:export-filename="delete-16x16.png"
        inkscape:export-xdpi="1.536"
        inkscape:export-ydpi="1.536"
        inkscape:version="1.2.1 (9c6d41e410, 2022-07-14)"
        xmlns:inkscape="http://www.inkscape.org/namespaces/inkscape"
        xmlns:sodipodi="http://sodipodi.sourceforge.net/DTD/sodipodi-0.dtd"
        xmlns="http://www.w3.org/2000/svg"
>
    <defs
            id="defs141"/>
    <sodipodi:namedview
            id="namedview139"
            pagecolor="#ffffff"
            bordercolor="#000000"
            borderopacity="0.25"
            inkscape:showpageshadow="2"
            inkscape:pageopacity="0.0"
            inkscape:pagecheckerboard="0"
            inkscape:deskcolor="#d1d1d1"
            showgrid="false"
            inkscape:zoom="0.6675088"
            inkscape:cx="677.14463"
            inkscape:cy="629.20519"
            inkscape:window-width="1920"
            inkscape:window-height="1147"
            inkscape:window-x="1912"
            inkscape:window-y="-8"
            inkscape:window-maximized="1"
            inkscape:current-layer="svg137"/>
    <path
            d="m 62.5,281.232 v -68.355 q 1.953,-37.107 29.295,-62.496 27.342,-25.389 64.449,-25.389 h 93.744 V 93.744 q 0,-39.06 27.342,-66.402 Q 304.672,0 343.732,0 h 312.48 q 39.06,0 66.402,27.342 27.342,27.342 27.342,66.402 v 31.248 H 843.7 q 37.107,0 64.449,25.389 27.342,25.389 29.295,62.496 v 68.355 q 0,25.389 -18.553,43.943 -18.553,18.554 -43.943,18.553 v 531.216 q 0,52.731 -36.13,88.862 -36.13,36.13098 -88.862,36.12998 H 249.988 q -52.731,0 -88.862,-36.12998 -36.131,-36.13 -36.13,-88.862 V 343.728 q -25.388999,0 -43.943,-18.553 Q 62.499,306.622 62.5,281.232 Z m 62.496,0 h 749.952 v -62.496 q 0,-13.671 -8.789,-22.46 -8.789,-8.789 -22.46,-8.789 H 156.243 q -13.671,0 -22.46,8.789 -8.789,8.789 -8.789,22.46 v 62.496 z m 62.496,593.712 q 0,25.389 18.553,43.943 18.553,18.554 43.943,18.553 h 499.968 q 25.389,0 43.943,-18.553 18.554,-18.553 18.553,-43.943 V 343.728 h -624.96 z m 62.496,-31.248 V 437.472 q 0,-13.671 8.789,-22.46 8.789,-8.789 22.46,-8.789 h 62.496 q 13.671,0 22.46,8.789 8.789,8.789 8.789,22.46 v 406.224 q 0,13.671 -8.789,22.46 -8.789,8.789 -22.46,8.789 h -62.496 q -13.671,0 -22.46,-8.789 -8.789,-8.789 -8.789,-22.46 z m 31.248,0 h 62.496 V 437.472 H 281.236 Z M 312.484,124.992 H 687.46 V 93.744 q 0,-13.671 -8.789,-22.46 -8.789,-8.789 -22.46,-8.789 h -312.48 q -13.671,0 -22.46,8.789 -8.789,8.789 -8.789,22.46 v 31.248 z M 437.476,843.696 V 437.472 q 0,-13.671 8.789,-22.46 8.789,-8.789 22.46,-8.789 h 62.496 q 13.671,0 22.46,8.789 8.789,8.789 8.789,22.46 v 406.224 q 0,13.671 -8.789,22.46 -8.789,8.789 -22.46,8.789 h -62.496 q -13.671,0 -22.46,-8.789 -8.789,-8.789 -8.789,-22.46 z m 31.248,0 H 531.22 V 437.472 h -62.496 z m 156.24,0 V 437.472 q 0,-13.671 8.789,-22.46 8.789,-8.789 22.46,-8.789 h 62.496 q 13.671,0 22.46,8.789 8.789,8.789 8.789,22.46 v 406.224 q 0,13.671 -8.789,22.46 -8.789,8.789 -22.46,8.789 h -62.496 q -13.671,0 -22.46,-8.789 -8.789,-8.789 -8.789,-22.46 z m 31.248,0 h 62.496 V 437.472 h -62.496 z"
            id="path135"/>
</svg>
